<?xml version="1.0"?>
<svg xmlns="http://www.w3.org/2000/svg" xmlns:xlink="http://www.w3.org/1999/xlink" width="399" height="452" viewBox="0 0 399 452" role="img" aria-labelledby="n7ndmrzdg2ydltwyazs13wptllrhmxu"><title id="n7ndmrzdg2ydltwyazs13wptllrhmxu">Hacktoberfest 2017</title><defs><path id="a" d="M168.007 99.83V.03H.619V99.83h167.388z"></path><path id="c" d="M168.007 99.83V.03H.619V99.83h167.388z"></path></defs><g fill="none" fill-rule="evenodd"><path d="M256.473 326.098v35.248a365.786 365.786 0 0 1 14.339-13.954v-21.294h-14.339zM270.812 383.447v-28.31a365.637 365.637 0 0 0-14.34 14.116v21.363l3.401 3.4 10.939-10.57zM94.187 363.169v56.187l7.169 7.168 7.169-7.168v-56.188zM108.525 348.83v-33.42l-14.338 14.337v19.084M235.886 348.638l-1.792-1.792-8.96-8.961-10.755-10.754-10.753 10.754 21.508 21.506zM181.477 130.558v53.766l10.754 10.753 10.753-10.753-7.168-7.17V123.39zM228.873 199.256v-53.765l-14.339 14.337v46.597zM194.133 286.726v-78.275l-14.338 7.169v78.275zM140.385 283.255V229.49l-14.338 14.337v46.596zM246.672 280.478v-53.764l-14.338 14.336v46.597zM286.082 235.27v60.934l7.17 7.168 7.17-7.168v-68.103zM278.889 175.903V96.418l-14.339 7.168v90.922c3.463-4.652 8.564-11.48 14.339-18.605M100.921 301.03l10.026-10.025-3.584-3.585-7.17 7.169v-57.35H85.857v33.708a294.433 294.433 0 0 1 15.065 30.084M129.905 195.785v-82.44l-14.338 7.169v82.439zM160.66 366.485V312.72l-14.337 14.337v46.596zM146.339 101.3s2.516-7.483-.735-12.581-6.797-7.892-6.797-7.892-1.553 6.046-1.275 9.982c.278 3.938.653 7.107 8.807 10.49M150.383 86.61s3.01-7.298.106-12.602c-2.905-5.303-6.256-8.327-6.256-8.327s-1.951 5.928-1.938 9.876c.015 3.947.179 7.134 8.088 11.052M155.673 72.574s3.468-7.092.908-12.569c-2.562-5.477-5.714-8.708-5.714-8.708s-2.325 5.792-2.562 9.732c-.236 3.94-.276 7.132 7.368 11.545M161.727 58.874s3.907-6.86 1.694-12.488c-2.211-5.627-5.154-9.05-5.154-9.05s-2.685 5.635-3.169 9.552c-.484 3.919-.723 7.1 6.629 11.986M168.827 45.356s4.248-6.654 2.323-12.386c-1.925-5.73-4.692-9.298-4.692-9.298s-2.965 5.492-3.646 9.38c-.68 3.888-1.08 7.054 6.015 12.304M309.083 144.395s6.72-4.144 7.48-10.142c.76-5.998-.18-10.414-.18-10.414s-5.059 3.655-7.364 6.86c-2.304 3.206-4.042 5.882.064 13.696M320.7 136.921s6.97-3.708 8.11-9.646c1.14-5.938.484-10.403.484-10.403s-5.282 3.326-7.786 6.377c-2.503 3.052-4.408 5.613-.808 13.672M332.703 130.074s7.188-3.263 8.7-9.118c1.51-5.854 1.136-10.352 1.136-10.352s-5.48 2.987-8.171 5.876c-2.69 2.889-4.752 5.325-1.665 13.594M344.749 123.84s7.52-2.4 9.707-8.036c2.186-5.637 2.341-10.148 2.341-10.148s-5.792 2.324-8.802 4.878c-3.01 2.553-5.343 4.732-3.246 13.305M306.138 317.546s6.724-4.136 7.49-10.134c.767-5.997-.167-10.413-.167-10.413s-5.063 3.65-7.372 6.851c-2.307 3.203-4.048 5.878.05 13.696M317.62 309.723s7.294-3.025 8.997-8.827c1.702-5.8 1.475-10.31 1.475-10.31s-5.575 2.806-8.36 5.605c-2.784 2.798-4.924 5.165-2.111 13.532M330.207 303.197s7.548-2.315 9.796-7.929c2.248-5.612 2.452-10.121 2.452-10.121s-5.818 2.261-8.855 4.782c-3.04 2.52-5.396 4.672-3.393 13.268M343.217 297.386s7.806-1.174 10.86-6.393c3.053-5.218 3.922-9.648 3.922-9.648s-6.088 1.377-9.466 3.42c-3.377 2.043-6.025 3.823-5.316 12.621M273.738 33.757s3.226-3.3 3.319-7.43c.092-4.13-2.671-7.019-2.671-7.019s-3.445 3.294-3.639 7.096c-.193 3.802 2.99 7.353 2.99 7.353M280.433 40.757s3.44-3.076 7.57-2.984c4.132.091 6.895 2.98 6.895 2.98s-3.445 3.295-7.251 3.32c-3.808.023-7.214-3.316-7.214-3.316M287.442 27.651l-1.863.136-1.778.129c.481-1.115 1.177-2.273 2.18-3.233 2.986-2.855 6.983-2.766 6.983-2.766s-.106 4.765-2.781 7.474c-.896.907-2.028 1.516-3.135 1.924l.209-1.94.185-1.724M270.522 45.233l-1.854.22-1.77.21c.43-1.135 1.071-2.324 2.03-3.329 2.852-2.989 6.85-3.082 6.85-3.082s.112 4.765-2.437 7.593c-.854.947-1.957 1.607-3.045 2.066 0 0 .089-1.428.12-1.948l.106-1.73M257.358 51.7s3.074-3.443 2.977-7.574c-.097-4.13-2.99-6.89-2.99-6.89s-3.29 3.449-3.31 7.255c-.019 3.807 3.323 7.209 3.323 7.209M254.75 62.178l-1.855.22-1.769.21c.429-1.135 1.07-2.323 2.03-3.329 2.852-2.989 6.849-3.082 6.849-3.082s.112 4.765-2.437 7.594c-.854.947-1.956 1.606-3.044 2.065l.12-1.948.106-1.73M241.612 69.451s3.074-3.443 2.976-7.574c-.096-4.13-2.99-6.89-2.99-6.89s-3.29 3.449-3.31 7.255c-.019 3.807 3.324 7.21 3.324 7.21M201.129 410.59c-6.78-5.324-14.343-5.798-20.86-4.273-2.59.605-5.367 2.349-7.817 4.78.005.006.013.01.02.016a4.215 4.215 0 0 1 0 5.952 4.196 4.196 0 0 1-2.978 1.23 4.215 4.215 0 0 1-1.88-.462c-1.197 2.397-2.019 4.973-2.194 7.583-.597 8.894 5.026 15.005 5.026 15.005 4.366-4.519 3.337-17.142 3.337-17.142 6.703 2.52 12.508 2.825 12.508 2.825-.436-6.192-2.58-12.87-2.58-12.87 10.604 1.68 17.418-2.645 17.418-2.645M79.119 386.58c-.63-2.649-2.458-5.488-4.99-7.969-.1.126-.19.258-.306.375a4.2 4.2 0 0 1-2.978 1.23 4.195 4.195 0 0 1-3.58-6.397c-2.32-1.106-4.798-1.858-7.303-2.016-8.896-.563-14.986 5.082-14.986 5.082 4.536 4.349 17.155 3.273 17.155 3.273-2.495 6.712-2.778 12.518-2.778 12.518 6.19-.459 12.862-2.628 12.862-2.628-1.641 10.61 2.71 17.406 2.71 17.406 5.297-6.8 5.742-14.364 4.194-20.874M325.8 378.766c2.85-6.569 3.445-12.351 3.445-12.351-6.206.126-12.985 1.934-12.985 1.934 2.208-10.506-1.77-17.527-1.77-17.527-5.656 6.506-6.507 14.035-5.31 20.618.314 1.73 1.144 3.562 2.32 5.35.63-.519 1.4-.846 2.231-.933a4.176 4.176 0 0 1 3.09.915 4.216 4.216 0 0 1 .622 5.92c-.052.064-.114.112-.17.171 3.012 2.262 6.572 3.93 10.243 4.362 8.853 1.04 15.238-4.27 15.238-4.27-4.296-4.586-16.954-4.19-16.954-4.19M34.627 201.33s-3.056-3.46-2.937-7.59c.118-4.13 3.025-6.874 3.025-6.874s3.273 3.465 3.272 7.273c0 3.807-3.36 7.19-3.36 7.19M35.613 216.594s-3.28-3.248-7.41-3.366c-4.13-.119-7.036 2.626-7.036 2.626s3.273 3.465 7.073 3.683c3.8.218 7.373-2.943 7.373-2.943M45.3 220.112l1.854.23 1.768.22c-.423-1.138-1.058-2.33-2.012-3.34-2.837-3.003-6.833-3.118-6.833-3.118s-.137 4.765 2.397 7.606c.848.951 1.947 1.617 3.033 2.081l-.11-1.948c-.028-.52-.097-1.73-.097-1.73M58.342 226.554s-3.055-3.459-2.937-7.588c.118-4.13 3.025-6.875 3.025-6.875s3.273 3.465 3.273 7.272c0 3.807-3.36 7.191-3.36 7.191M59.16 241.53s-3.278-3.249-7.409-3.367c-4.13-.118-7.037 2.626-7.037 2.626s3.273 3.466 7.075 3.684c3.8.218 7.371-2.943 7.371-2.943M21.251 194.534a4140.525 4140.525 0 0 0 3.622.45c-.423-1.138-1.058-2.33-2.013-3.34-2.836-3.004-6.832-3.117-6.832-3.117s-.136 4.764 2.397 7.605c.849.951 1.947 1.618 3.033 2.081l-.11-1.949-.097-1.73M360.524 245.938l-5.613 4.484-2.99-3.74 5.613-4.487-1.495-1.87-10.65 8.79 5.98 7.483 10.65-8.79zM47.972 139.216l-3.611 3.147 1.806-1.574 4.718 5.417-3.61 3.146-4.72-5.417-1.806 1.574 9.234 10.267 7.223-6.293zM222.347 46.178l2.274.75-2.25 6.823-4.549-1.5 2.251-6.823-2.275-.75-4.116 13.18 9.097 3 4.117-13.18zM67.798 96.347s-3.243-3.285-3.353-7.414c-.11-4.13 2.64-7.032 2.64-7.032s3.46 3.28 3.67 7.08c.21 3.8-2.957 7.366-2.957 7.366M54.067 90.303a170410.916 170410.916 0 0 0 3.641.248c-.485-1.112-1.186-2.267-2.194-3.222-2.998-2.843-6.995-2.736-6.995-2.736s.127 4.765 2.814 7.462c.9.903 2.034 1.507 3.144 1.91l-.217-1.94-.193-1.722M69.627 111.534s-3.454-3.062-7.583-2.952c-4.131.111-6.881 3.012-6.881 3.012s3.459 3.28 7.267 3.286c3.806.007 7.197-3.346 7.197-3.346M133.154 61.884c-4.134 3.727-5.171 8.133-5.361 10.966-.303-1.204-.961-2.735-2.326-4.526-2.611-3.426-6.482-4.447-6.482-4.447 1.514 8.893 8.897 11.886 8.897 11.886s3.01-.675 4.988-6.023c1.495-4.04.284-7.856.284-7.856M293.6 68.755c-4.133 3.728-5.17 8.133-5.361 10.965-.302-1.204-.96-2.735-2.326-4.525-2.612-3.427-6.482-4.447-6.482-4.447 1.514 8.893 8.897 11.885 8.897 11.885s3.01-.675 4.99-6.023c1.493-4.04.282-7.855.282-7.855M49.66 308.818c2.417 3.747 5.768 5.132 7.985 5.646-.992.085-2.287.41-3.879 1.259-3.044 1.626-4.347 4.555-4.347 4.555 7.227-.056 10.54-5.51 10.54-5.51s-.147-2.467-4.123-4.718c-3.003-1.7-6.176-1.232-6.176-1.232M343.923 211.625c-1.995-1.045-3.615-1.435-4.853-1.53 2.76-.666 6.928-2.43 9.906-7.131 0 0-3.964-.552-7.696 1.602-4.939 2.85-5.096 5.931-5.096 5.931s4.192 6.774 13.215 6.767c0 0-1.659-3.642-5.476-5.64" fill="#FF9566"></path><path d="M85.855 281.954v19.804l7.17 7.169 3.97-3.97a290.185 290.185 0 0 0-11.14-23.003M100.194 237.239l14.337-14.337h-14.337V212.15l-25.092 25.09h10.754zM270.812 326.097l14.337-14.337h-14.337v-10.752l-25.092 25.09h10.753zM259.873 394.015l3.768 3.77 7.17-7.17 10.754-10.752-3.585-3.585-7.169 7.168zM170.724 119.806l-14.34 14.336v46.597l14.34 14.338 10.752-10.754-10.752-10.753zM195.815 123.39l-14.338-14.337-10.753 10.753 10.753 10.752zM214.534 206.425l14.339 14.337 7.169-7.169 3.584-3.584 14.225-14.224-3.584-3.585-14.225 14.225-7.17-7.169zM228.873 145.39l10.753 10.753 10.754-10.753-10.754-10.753zM289.642 114.339l-10.753 10.753 10.753 10.752 10.754-10.752zM194.133 208.451l-10.753-10.753-10.754 10.753 7.169 7.169zM179.795 293.895l14.337 14.336 10.755-10.753-10.755-10.752z" fill="#FF625F"></path><path fill="#FF625F" d="M194.133 232.96l10.754 10.754v53.765l14.337-14.337v-46.597l-14.337-14.338zM140.385 229.49l10.754 10.753v53.765l14.337-14.337v-46.597l-14.337-14.337zM126.047 290.424l14.338 14.337 10.753-10.753-10.753-10.753zM246.672 248.042v-.977M246.672 255.21l25.004-25.001-14.25-14.25-10.754 10.754 10.666 10.664-10.666 10.665zM232.334 287.647l14.338 14.337 7.17-7.169 3.584-3.585 17.002-17-3.584-3.585-17.002 17.002-7.17-7.169zM300.421 228.101l10.753 10.753 10.754-10.753-10.754-10.753zM300.421 228.101l-10.754-10.753-10.754 10.753 7.17 7.169zM107.363 363.168h8.331l14.338-14.337H94.187L82.27 363.169h10.754zM130.032 315.41l-10.753-10.753-10.754 10.753 10.754 10.753zM203.626 377.312l10.753 10.754 10.754-10.754-10.754-10.753zM235.886 312.794l-10.752-10.753-10.755 10.753 10.755 10.753zM214.379 327.132v-14.337l-10.753 10.753v14.337zM225.133 359.39v17.922l10.753-10.753v-17.921zM278.889 96.417l-10.753-10.753-10.755 10.753 7.17 7.168zM264.55 202.658v.255l7.17 7.17 7.169-7.17V183.61c-6.508 8.073-11.873 15.402-14.339 19.048M301.43 158.88c-3.615 3.276-7.434 7.218-11.206 11.395v27.084l7.169 7.17 7.169-7.17v-41.193a101.8 101.8 0 0 0-3.131 2.715M45.441 380.47s-4.436 3.852-6.361 6.648c0 0 3.296 2.81 8.637 3.058 5.343.249 9.413-2.594 9.413-2.594s.88-3.315 1.259-4.307c0 0-6.751.666-12.948-2.804M47.492 392.728s-3.463-.083-6.795-1.607c0 0-2.691 3.379-3.681 10.014 0 0 4.495.177 8.756-.844 0 0 .455-4.442 1.72-7.563M71.255 407.621s-3.993 4.31-6.85 6.144c0 0-2.703-3.385-2.779-8.731-.076-5.347 2.897-9.324 2.897-9.324s3.342-.772 4.347-1.118c0 0-.885 6.724 2.385 13.03M58.926 404.678s-.03 3.463 1.387 6.842c0 0-3.464 2.581-10.127 3.357 0 0-.033-4.5 1.125-8.725 0 0 4.454-.31 7.615-1.474M39.467 403.696s-1.691 7.022-1.704 9.704c0 0 5.56.52 9.626-1.191 0 0 .68-4.67 1.286-6.285l-3.2-.192.416-2.957s-2.674.898-6.424.92M50.347 392.914s-2.035 6.93-1.291 9.904c0 0 4.149.866 10.286-1.5 0 0 .786-3.922 1.971-5.685 0 0-2.7.279-4.577.001 0 0-.169-2.858.023-4.644 0 0-2.712 1.629-6.412 1.924M278.881 35.838l-1.863.135-1.777.13c.48-1.116 1.177-2.273 2.18-3.233 2.986-2.856 6.983-2.767 6.983-2.767s-.107 4.766-2.78 7.475c-.898.907-2.029 1.515-3.136 1.924l.208-1.941.185-1.723M265.29 43.389s3.073-3.443 2.976-7.574c-.097-4.13-2.99-6.89-2.99-6.89s-3.29 3.449-3.31 7.255c-.02 3.807 3.324 7.209 3.324 7.209M272.298 50.076s3.295-3.231 7.427-3.328c4.13-.097 7.023 2.663 7.023 2.663s-3.292 3.449-7.093 3.646c-3.803.198-7.357-2.981-7.357-2.981M264.368 58.387s3.295-3.231 7.425-3.328c4.13-.097 7.023 2.663 7.023 2.663s-3.29 3.449-7.092 3.647c-3.802.197-7.356-2.982-7.356-2.982M262.592 53.543s-1.321.158-1.855.22l-1.77.21c.43-1.134 1.071-2.323 2.03-3.328 2.853-2.989 6.85-3.082 6.85-3.082s.111 4.765-2.437 7.593c-.854.948-1.956 1.607-3.044 2.066l.12-1.949.106-1.73M249.516 59.917s3.074-3.443 2.977-7.573c-.096-4.13-2.99-6.89-2.99-6.89s-3.29 3.448-3.31 7.255c-.019 3.806 3.323 7.208 3.323 7.208M256.525 67.021s3.296-3.23 7.427-3.328c4.13-.097 7.023 2.664 7.023 2.664s-3.291 3.448-7.092 3.645c-3.803.199-7.358-2.98-7.358-2.98M248.62 76.138s3.296-3.23 7.427-3.328c4.13-.097 7.023 2.663 7.023 2.663s-3.29 3.45-7.092 3.646c-3.803.199-7.358-2.98-7.358-2.98"></path><path d="M252.39 65.284s-3.996.094-6.848 3.083c-1.651 1.73-2.36 4.001-2.666 5.611-5.406 7.639-20.034 30.313-37.489 73.977l2.579 1.032c17.444-43.64 31.983-66.087 37.214-73.46 1.54-.409 3.453-1.183 4.774-2.65 2.55-2.828 2.436-7.593 2.436-7.593M137.33 426.135s-10.068 2.49-10.669 9.118c-.6 6.628 1.692 16.191 1.692 16.191s10.65-8.208 12.246-11.77c2.17-4.843-3.269-13.539-3.269-13.539M140.188 417.237a3.167 3.167 0 0 1-.683-3.456c-2.982-1.171-7.934-2.32-12.965.016-7.99 3.711-10.662 11.73-10.662 11.73s8.412 1.065 16.093-1.943c2.98-1.166 6.224-4.189 8.292-6.286-.023-.021-.051-.037-.075-.06M174.033 439.969s3.836 4.45 6.623 6.385c0 0 2.823-3.284 3.093-8.624.268-5.342-2.56-9.422-2.56-9.422s-3.312-.892-4.303-1.274c0 0 .641 6.751-2.853 12.935M186.3 437.964s-.097 3.463-1.634 6.788c0 0 3.37 2.705 10.001 3.72 0 0 .194-4.495-.812-8.76 0 0-4.44-.472-7.555-1.748M201.283 414.26s4.295 4.008 6.117 6.87c0 0-3.394 2.69-8.741 2.747-5.348.056-9.314-2.932-9.314-2.932s-.759-3.345-1.102-4.35c0 0 6.722.91 13.04-2.336M198.293 426.576s3.463.042 6.848-1.361c0 0 2.568 3.473 3.319 10.139 0 0-4.5.016-8.722-1.158 0 0-.295-4.455-1.445-7.62M197.237 446.03s7.016 1.717 9.699 1.74c0 0 .542-5.556-1.155-9.63 0 0-4.667-.697-6.28-1.31l-.205 3.2-2.955-.427s.887 2.677.896 6.427M186.496 435.11s6.924 2.06 9.9 1.329c0 0 .881-4.147-1.46-10.291 0 0-3.92-.802-5.68-1.993 0 0 .27 2.702-.016 4.577 0 0-2.859.159-4.644-.041 0 0 1.618 2.719 1.9 6.42M243.006 437.964h-19.894l6.128-6.358c1.617-1.682 2.885-3.108 3.802-4.277.92-1.168 1.601-2.157 2.05-2.966.447-.807.725-1.463.835-1.966.108-.502.164-.929.164-1.28 0-.37-.061-.73-.18-1.08a2.801 2.801 0 0 0-.541-.935 2.752 2.752 0 0 0-.87-.655c-.339-.163-.736-.245-1.196-.245-.873 0-1.557.284-2.048.852-.492.568-.736 1.278-.736 2.13 0 .241.032.59.096 1.049h-7.014c0-1.443.235-2.753.706-3.933a8.918 8.918 0 0 1 1.982-3.048 8.77 8.77 0 0 1 3.032-1.966c1.169-.459 2.453-.688 3.852-.688 1.376 0 2.648.219 3.818.655 1.168.437 2.18 1.048 3.03 1.835a8.424 8.424 0 0 1 2.001 2.803c.48 1.081.72 2.256.72 3.523 0 1.354-.289 2.606-.868 3.752-.579 1.148-1.502 2.322-2.768 3.524l-4.098 3.834h7.997v5.44zM254.117 425.576c0 1.092.097 2.087.294 2.982.196.896.476 1.672.836 2.328.361.655.793 1.163 1.294 1.524.504.36 1.071.54 1.705.54.612 0 1.174-.18 1.688-.54.514-.36.944-.87 1.296-1.524.349-.656.62-1.432.818-2.328.196-.895.296-1.89.296-2.982 0-1.07-.1-2.058-.296-2.966-.198-.907-.47-1.682-.818-2.327-.352-.644-.782-1.147-1.296-1.507a2.874 2.874 0 0 0-1.688-.542c-.634 0-1.201.181-1.705.542-.501.36-.933.863-1.294 1.507-.36.645-.64 1.42-.836 2.327a14.008 14.008 0 0 0-.294 2.966m-6.36 0c0-1.966.259-3.753.771-5.358.513-1.606 1.235-2.977 2.163-4.113a9.782 9.782 0 0 1 3.31-2.64c1.28-.621 2.694-.933 4.245-.933 1.529 0 2.94.312 4.229.934a9.585 9.585 0 0 1 3.31 2.639c.918 1.136 1.632 2.507 2.146 4.113.514 1.605.77 3.392.77 5.358 0 1.966-.256 3.753-.77 5.358-.514 1.607-1.228 2.983-2.146 4.13a9.487 9.487 0 0 1-3.31 2.654c-1.29.624-2.7.935-4.229.935-1.551 0-2.965-.311-4.245-.935a9.68 9.68 0 0 1-3.31-2.654c-.928-1.147-1.65-2.523-2.163-4.13-.512-1.605-.77-3.392-.77-5.358M276.404 418.693H272.8v-5.44h10.029v24.711h-6.424zM300.397 418.693h-10.324v-5.44h20.288l-14.16 24.711h-7.079zM154.047 425.801c-1.7-5.236-5.867-8.08-8.753-9.478-.152.33-.353.643-.625.914a3.15 3.15 0 0 1-2.53.9c-.127 2.943-.132 7.374 1.042 10.35 3.026 7.674 9.533 13.11 9.533 13.11s4.056-7.416 1.333-15.796" fill="#FF625F"></path><path d="M142.428 412.87c-.568 0-1.101.222-1.504.623a2.113 2.113 0 0 0-.623 1.504c0 .568.221 1.103.623 1.505.804.803 2.204.802 3.009 0a2.13 2.13 0 0 0 0-3.009 2.115 2.115 0 0 0-1.505-.622m0 6.333a4.194 4.194 0 0 1-2.976-1.23 4.213 4.213 0 0 1 0-5.953 4.214 4.214 0 0 1 5.953 0 4.213 4.213 0 0 1 0 5.953 4.194 4.194 0 0 1-2.977 1.23M133.85 383.742c-.568 0-1.102.22-1.505.623a2.13 2.13 0 0 0 0 3.008c.804.802 2.204.803 3.009 0 .402-.402.623-.936.623-1.505 0-.567-.221-1.102-.623-1.503a2.112 2.112 0 0 0-1.504-.623m0 6.334a4.196 4.196 0 0 1-2.977-1.23 4.215 4.215 0 0 1 0-5.954 4.214 4.214 0 0 1 5.953 0 4.213 4.213 0 0 1 0 5.953 4.194 4.194 0 0 1-2.976 1.23" fill="#FF625F"></path><path d="M166.335 414.19a3.152 3.152 0 0 1 .919-2.341c.069-.07.148-.12.222-.182-13.409-7.298-24.053-17.49-29.36-23.12-.5-.61-.947-1.108-1.324-1.505a3.158 3.158 0 0 1-.702 1.067 3.137 3.137 0 0 1-1.414.804c.513.564 1.076 1.174 1.742 1.876 2.95 3.706 7.171 11.06 5.256 21.143a3.152 3.152 0 0 1 2.714.595c1.122-5.887.323-10.979-1.177-15.082 5.896 5.397 13.877 11.733 23.124 16.744" fill="#FF625F"></path><path d="M169.494 411.962c-.567 0-1.102.221-1.504.623a2.114 2.114 0 0 0-.623 1.504c0 .568.222 1.102.623 1.504.806.803 2.205.803 3.009 0a2.13 2.13 0 0 0 0-3.008 2.115 2.115 0 0 0-1.505-.623m0 6.335a4.195 4.195 0 0 1-2.976-1.232 4.213 4.213 0 0 1 0-5.953 4.214 4.214 0 0 1 5.953 0 4.213 4.213 0 0 1 0 5.953 4.195 4.195 0 0 1-2.977 1.232M335.913 408.765s-.118 10.37 6.147 12.616c6.266 2.246 16.1 2.428 16.1 2.428s-5.273-12.368-8.319-14.807c-4.144-3.319-13.928-.237-13.928-.237M342.482 379.349s4.637-3.608 6.708-6.295c0 0-3.14-2.983-8.461-3.519-5.321-.535-9.538 2.086-9.538 2.086s-1.056 3.263-1.487 4.233c0 0 6.776-.304 12.778 3.495M341.092 366.999s3.453.269 6.699 1.97c0 0 2.868-3.23 4.212-9.802 0 0-4.479-.419-8.788.373 0 0-.693 4.41-2.123 7.459M318.163 350.852s4.218-4.09 7.17-5.767c0 0 2.516 3.525 2.306 8.867-.212 5.344-3.394 9.156-3.394 9.156s-3.379.59-4.4.883c0 0 1.244-6.668-1.682-13.14M330.316 354.452s.215-3.456-1.018-6.907c0 0 3.597-2.39 10.293-2.807 0 0-.21 4.493-1.593 8.65 0 0-4.463.073-7.682 1.064M349.693 356.478s2.066-6.921 2.224-9.6c0 0-5.524-.818-9.677.674 0 0-.93 4.625-1.622 6.207l3.187.363-.575 2.93s2.718-.753 6.463-.574M338.25 366.66s2.405-6.812 1.822-9.82c0 0-4.097-1.087-10.352.945 0 0-.996 3.873-2.274 5.571 0 0 2.712-.133 4.57.245 0 0 .017 2.863-.272 4.636 0 0 2.796-1.48 6.507-1.577M280.982 398.496a2.113 2.113 0 0 0-1.656.789 2.111 2.111 0 0 0-.463 1.56 2.11 2.11 0 0 0 .777 1.43 2.13 2.13 0 0 0 2.992-.314c.357-.441.521-.996.462-1.56a2.11 2.11 0 0 0-.777-1.431 2.108 2.108 0 0 0-1.335-.474m-.007 6.333a4.19 4.19 0 0 1-2.646-.935 4.184 4.184 0 0 1-1.538-2.832 4.18 4.18 0 0 1 .917-3.088 4.18 4.18 0 0 1 2.83-1.538 4.182 4.182 0 0 1 3.09.916 4.176 4.176 0 0 1 1.537 2.83 4.176 4.176 0 0 1-.915 3.09 4.204 4.204 0 0 1-3.275 1.557M326.555 399.042a2.125 2.125 0 0 0-1.34 3.779 2.1 2.1 0 0 0 1.56.461 2.11 2.11 0 0 0 1.43-.775 2.13 2.13 0 0 0-.314-2.992 2.114 2.114 0 0 0-1.336-.473m-.01 6.335a4.18 4.18 0 0 1-2.641-.938 4.215 4.215 0 0 1-.623-5.92 4.216 4.216 0 0 1 5.921-.623 4.216 4.216 0 0 1 .623 5.921 4.185 4.185 0 0 1-3.28 1.56M312.832 381.696c.44.357.994.524 1.56.462a2.108 2.108 0 0 0 1.431-.776 2.129 2.129 0 0 0-1.875-3.454 2.112 2.112 0 0 0-1.43.776 2.113 2.113 0 0 0-.463 1.562c.06.565.335 1.072.777 1.43m1.33 2.557a4.18 4.18 0 0 1-2.642-.939 4.185 4.185 0 0 1-1.537-2.83 4.183 4.183 0 0 1 .917-3.09 4.183 4.183 0 0 1 2.83-1.537 4.179 4.179 0 0 1 3.09.915 4.215 4.215 0 0 1 .622 5.92 4.178 4.178 0 0 1-3.28 1.561M290.277 13.775a1.55 1.55 0 0 1 2.187 0 1.55 1.55 0 0 1 0 2.187 1.55 1.55 0 0 1-2.187 0 1.548 1.548 0 0 1 0-2.187m1.093 4.026a2.928 2.928 0 0 0 2.412-4.595l6.14-5.872-.96-1.003-6.228 5.955a2.93 2.93 0 0 0-3.439.507 2.933 2.933 0 0 0-.567 3.325l-8.469 8.1.96 1.003 8.388-8.024a2.916 2.916 0 0 0 1.763.604M302.255 25.464c-.585.583-1.603.583-2.187 0a1.547 1.547 0 0 1 0-2.186c.584-.584 1.602-.584 2.187 0 .292.292.453.68.453 1.093 0 .413-.16.801-.453 1.093zm6.045-9.371l-5.9 5.642c-1.086-.485-2.448-.304-3.314.561a2.94 2.94 0 0 0-.629 3.209l-8.86 8.475.959 1.003 8.743-8.362a2.904 2.904 0 0 0 3.937-.175 2.915 2.915 0 0 0 .259-3.837l5.764-5.513-.96-1.003zM18.47 182.654a1.547 1.547 0 1 1-.86-2.972 1.547 1.547 0 0 1 .86 2.972zm10.13 8.817l-8.158-8.64c.057-.082.12-.158.168-.247.378-.687.466-1.48.247-2.232a2.914 2.914 0 0 0-1.403-1.754 2.92 2.92 0 0 0-2.232-.247 2.895 2.895 0 0 0-.705.324l-5.686-6.02-1.01.953 5.715 6.05a2.923 2.923 0 0 0-.316 2.328l.001.001a2.941 2.941 0 0 0 2.82 2.117 2.9 2.9 0 0 0 1.37-.341l8.179 8.66 1.01-.952zM8.899 192.692a1.547 1.547 0 1 1-.862-2.97 1.547 1.547 0 0 1 .862 2.97m2.387-2.301a2.916 2.916 0 0 0-1.404-1.755 2.915 2.915 0 0 0-2.232-.246c-.138.04-.264.1-.391.157l-6.25-6.618-1.009.953 6.162 6.525a2.927 2.927 0 0 0-.513 2.618 2.94 2.94 0 0 0 2.82 2.118c.27 0 .544-.039.816-.117.31-.09.59-.238.847-.415l7.635 8.086 1.01-.952-7.717-8.173c.356-.675.44-1.447.226-2.181M27.583 207.98s-3.278-3.248-7.409-3.366c-4.13-.119-7.037 2.626-7.037 2.626s3.273 3.466 7.074 3.683c3.801.218 7.372-2.943 7.372-2.943M29.384 203.146a4140.525 4140.525 0 0 0 3.622.45c-.424-1.138-1.058-2.33-2.013-3.34-2.836-3.003-6.833-3.118-6.833-3.118s-.136 4.765 2.398 7.606c.848.951 1.947 1.617 3.033 2.081l-.11-1.948-.097-1.73M42.656 209.944s-3.056-3.46-2.937-7.59c.118-4.13 3.025-6.874 3.025-6.874s3.273 3.465 3.272 7.273c0 3.807-3.36 7.19-3.36 7.19M37.413 211.76l1.854.23 1.768.22c-.423-1.138-1.059-2.33-2.013-3.34-2.836-3.003-6.832-3.118-6.832-3.118s-.137 4.765 2.397 7.606c.849.951 1.947 1.617 3.033 2.081l-.11-1.949-.097-1.73M50.543 218.296s-3.056-3.46-2.937-7.59c.118-4.13 3.025-6.874 3.025-6.874s3.273 3.465 3.273 7.273c0 3.807-3.36 7.19-3.36 7.19M43.5 224.946s-3.28-3.248-7.409-3.366c-4.13-.119-7.037 2.626-7.037 2.626s3.273 3.466 7.074 3.683c3.8.218 7.372-2.943 7.372-2.943M51.299 233.205s-3.28-3.249-7.41-3.366c-4.13-.12-7.036 2.625-7.036 2.625s3.273 3.466 7.073 3.684c3.802.217 7.373-2.943 7.373-2.943M53.099 228.37l1.854.23 1.768.22c-.423-1.137-1.059-2.33-2.012-3.34-2.837-3.003-6.833-3.117-6.833-3.117s-.136 4.764 2.397 7.606c.849.95 1.947 1.617 3.033 2.08l-.11-1.948-.097-1.73M66.204 234.88s-3.056-3.46-2.937-7.59c.118-4.13 3.025-6.874 3.025-6.874s3.273 3.465 3.272 7.272c0 3.808-3.36 7.191-3.36 7.191M7.347 180.2a1.538 1.538 0 0 1-1.176-.13 1.548 1.548 0 0 1 .744-2.9c.67-.001 1.29.44 1.486 1.114a1.548 1.548 0 0 1-1.054 1.916m8.68 8.326s.404.012 1.043.124l-7.778-8.237c.504-.706.702-1.62.442-2.516a2.94 2.94 0 0 0-3.636-2c-.271.08-.514.204-.74.348l-2.809-2.972-1.01.952 2.848 3.016a2.922 2.922 0 0 0 1.114 4.045 2.92 2.92 0 0 0 2.745.041l7.82 8.281c-.049-.659-.038-1.082-.038-1.082M101.611 309.977c-17.743-44.965-42.795-73.65-43.047-73.934l2.082-1.839c.254.29 25.617 29.31 43.548 74.754l-2.583 1.019z" fill="#FF625F"></path><path d="M104.194 308.958c-13.51-34.24-31.236-59.15-39.264-69.478-.29-1.616-.98-3.937-2.65-5.705-2.837-3.004-6.833-3.119-6.833-3.119s-.137 4.765 2.397 7.605c1.292 1.45 3.162 2.234 4.686 2.656 7.798 9.988 25.557 34.786 39.081 69.06l2.583-1.02zM365.013 243.883l-4.485-5.612-3.742 2.99 4.486 5.612zM348.925 255.351l-2.99-3.74-1.872 1.494.848 1.061c-3.85 3.142-18.972 15.92-34.211 34.75l1.619 1.31c15.113-18.674 30.096-31.335 33.892-34.434l.842 1.055 1.872-1.496zM43.923 136.391l-5.418 4.72 3.146 3.611 5.418-4.719zM65.503 169.36s-10.533 10.29-26.718 6.27c0 0 4.594-5.8 12.33-7.687 10.241-2.498 14.388 1.418 14.388 1.418M66.86 160.881s-7.621-8.59-3.882-21.047c0 0 4.346 3.796 5.525 9.894 1.563 8.07-1.643 11.153-1.643 11.153M83.394 184.505v15.9l7.169 7.168 7.169-7.169v-5.206a240.337 240.337 0 0 1-14.338-10.693M115.567 145.515v57.438M129.904 113.345l-10.753-10.752-10.754 10.752 7.17 7.17zM150.49 189.538l-13.416 13.416-7.17-7.168-14.338 7.168 14.338 14.337 7.17-7.168 3.584-3.585 13.417-13.417z" fill="#FF625F"></path><path d="M97.732 163.35l17.834-17.834v-7.168L97.732 156.18v-42.835L86.98 102.592l-.045.044-.045-.044-21.506 21.506 3.672 3.673 10.755-10.753 3.584 3.585v59.388c-14.401-11.767-24.084-22.3-26.773-25.321l1.016-.886-1.572-1.806-3.612 3.147 1.573 1.805 1.025-.894c2.81 3.157 13.094 14.341 28.343 26.635v.053a239.989 239.989 0 0 0 14.338 10.79v-.125a219.602 219.602 0 0 0 4.6 3.094l1.14-1.743a219.752 219.752 0 0 1-5.74-3.885V163.35zM227.258 42.754l-6.823-2.25-1.5 4.549 6.824 2.25zM220.051 61.15l-4.549-1.5-.75 2.275 1.29.425c-1.771 5.568-9.345 30.932-10.652 61.3l2.081.09c1.295-30.113 8.803-55.25 10.549-60.738l1.282.422.75-2.275zM384.512 114.478a1.549 1.549 0 0 1 2.071-.7 1.545 1.545 0 1 1-2.071.7m-25.315 13.58c-1.776-1.45-3.393-2.69-6.008-2.773.902-.372 1.773-.721 2.618-1.055 1.322.893 3.615 1.286 5.836.884 2.247-.405 6.28-4.09 8.153-5.9l13.38-2.984a2.913 2.913 0 0 0 2.717 1.867 2.94 2.94 0 0 0 2.636-1.633 2.91 2.91 0 0 0 .285-1.491l9.222-2.056-.302-1.355-9.335 2.081a2.908 2.908 0 0 0-1.2-1.11 2.939 2.939 0 0 0-3.932 1.33c-.157.318-.24.651-.277.986l-13.614 3.035c-2.358-.512-7.046-1.361-9.326-.59-2.374.8-4.644 2.644-5.223 4.336-12.02 4.713-34.695 15.357-51.07 28.328l-14.114-14.113-10.754 10.752 11.334 11.334v4.793c-10.345 11.196-20.572 24.929-26.109 32.37-1.634 2.197-2.904 3.906-3.708 4.922l2.177 1.722c.821-1.039 2.118-2.782 3.76-4.986 7.008-9.42 21.592-29.023 34.226-40.47 2.87-2.6 6.127-5.164 9.61-7.653 1.194 1.584 5.028 6.126 9.99 6.586 6.022.558 10.403-.529 10.403-.529s-3.824-4.933-7.103-7.128c-2.651-1.774-4.947-3.186-9.776-1.362a183.25 183.25 0 0 1 7.829-4.973c1.401 1.713 5.213 5.798 9.973 6.123 6.032.41 10.386-.783 10.386-.783s-3.942-4.84-7.276-6.953c-2.075-1.317-3.934-2.424-6.865-1.976 1.691-.944 3.377-1.861 5.056-2.746 1.478 1.779 5.222 5.682 9.87 6 6.032.412 10.386-.78 10.386-.78s-3.941-4.84-7.275-6.955c-1.723-1.093-3.302-2.036-5.465-2.07a248.056 248.056 0 0 1 5.851-2.751c1.3 1.988 4.526 6.183 9.024 7.036 5.941 1.126 10.406.46 10.406.46s-3.338-5.274-6.396-7.77M370.796 107.41a1.549 1.549 0 0 1 2.071-.7 1.547 1.547 0 1 1-2.071.7zm-12.937 8.026l11.974-5.603c.27.364.615.678 1.048.892a2.94 2.94 0 0 0 3.932-1.33 2.912 2.912 0 0 0 .207-1.988l8.971-4.198-.588-1.257-9.01 4.215a2.933 2.933 0 0 0-.91-.702 2.94 2.94 0 0 0-3.932 1.329 2.914 2.914 0 0 0-.26 1.76l-12.021 5.623.589 1.259z" fill="#FF625F"></path><path d="M378.337 127.23a1.547 1.547 0 0 1-2.772-1.37 1.548 1.548 0 0 1 2.07-.7 1.548 1.548 0 0 1 .702 2.07zm10.895-3.303l-9.59 1.482a2.909 2.909 0 0 0-1.39-1.494 2.939 2.939 0 0 0-3.932 1.329 2.912 2.912 0 0 0-.283 1.03l-12.097 1.87.212 1.371 12.093-1.868a2.912 2.912 0 0 0 1.405 1.528 2.939 2.939 0 0 0 3.932-1.33c.17-.343.262-.706.29-1.068l9.57-1.477-.21-1.373zM195.856 10.285a1.531 1.531 0 0 1 1.303-.715c.71 0 1.35.491 1.51 1.212.09.403.016.816-.206 1.165-.222.348-.566.59-.97.678-.403.09-.817.016-1.164-.206a1.534 1.534 0 0 1-.678-.97 1.531 1.531 0 0 1 .205-1.164M184.69 46.469c5.472-2.573 8.697-5.732 8.697-5.732s-5.798-2.313-9.738-2.54c-2.193-.127-4.154-.188-6.22 1.095a172.33 172.33 0 0 1 1.688-2.67c1.572-.114 3.564-1.115 5.074-2.687 1.577-1.643 2.68-6.972 3.135-9.544l8.535-10.674c.408.203.843.334 1.292.334.213 0 .428-.022.641-.07a2.914 2.914 0 0 0 1.84-1.288 2.893 2.893 0 0 0-.215-3.428l6.017-7.526-1.085-.866-6.039 7.554a2.912 2.912 0 0 0-3.627 1.111 2.916 2.916 0 0 0 .1 3.298l-8.55 10.696c-2.202.964-6.524 3.035-7.924 5.004-1.499 2.106-2.237 5.03-1.614 6.718-7.639 11.84-21.844 37.59-26.39 59.18l-.273 1.298c-3.267 15.488-7.333 34.762-8.553 70.222l2.776.096c1.078-31.398 4.406-50.015 7.414-64.585 2.613.015 7.217-.413 10.206-3.271 4.37-4.179 6.422-8.2 6.422-8.2s-6.231-.349-10.04.688c-1.773.483-3.374.964-4.758 2.2a104.59 104.59 0 0 1 1.61-5.966c2.44.27 7.554.417 11.014-2.41 4.68-3.827 7.04-7.675 7.04-7.675s-6.186-.834-10.064-.096c-1.95.372-3.705.746-5.272 2.105.726-1.967 1.496-3.93 2.3-5.881 2.296.432 7.628 1.037 11.394-1.66 4.915-3.52 7.514-7.212 7.514-7.212s-6.12-1.224-10.037-.734c-2 .25-3.8.521-5.473 1.83a239.846 239.846 0 0 1 2.768-5.783c2.342.576 7.493 1.424 11.335-.977 5.127-3.207 7.952-6.727 7.952-6.727s-6.03-1.606-9.971-1.364c-1.908.118-3.635.268-5.302 1.305a250.288 250.288 0 0 1 3.066-5.525c2.28.852 7.246 2.27 11.315.357M180.958 13.347c.222-.348.566-.589.97-.678a1.55 1.55 0 0 1 1.844 1.175c.09.403.016.817-.206 1.166a1.53 1.53 0 0 1-.97.677c-.404.09-.817.018-1.165-.205a1.536 1.536 0 0 1-.678-.97 1.533 1.533 0 0 1 .205-1.165zm-5.26 15.525l5.821-11.864c.24.063.486.105.737.105.212 0 .427-.022.64-.07a2.916 2.916 0 0 0 1.841-1.288 2.902 2.902 0 0 0-.695-3.89l4.363-8.893-1.245-.611-4.383 8.93a2.919 2.919 0 0 0-2.99 1.31 2.914 2.914 0 0 0 .51 3.747l-5.847 11.913 1.248.611z" fill="#FF625F"></path><path d="M199.308 26.05c-.222.35-.566.59-.97.68a1.53 1.53 0 0 1-1.165-.207 1.537 1.537 0 0 1-.679-.97 1.548 1.548 0 0 1 1.51-1.88 1.548 1.548 0 0 1 1.304 2.378m1.056-2.568l6.131-6.709-1.024-.936-6.182 6.762a2.907 2.907 0 0 0-1.92-.245 2.936 2.936 0 0 0-2.23 3.498c.071.32.202.614.366.886l-8.664 9.482 1.024.937 8.623-9.435c.464.28.98.432 1.51.432.213 0 .427-.023.64-.07a2.917 2.917 0 0 0 1.84-1.288 2.92 2.92 0 0 0-.114-3.314M50.494 78.718a1.547 1.547 0 1 1-1.026-2.918 1.547 1.547 0 0 1 1.026 2.918zm2.075-.095c.017-.032.042-.06.057-.093.34-.707.383-1.503.123-2.243a2.909 2.909 0 0 0-1.498-1.672 2.905 2.905 0 0 0-2.242-.123c-.189.065-.367.15-.535.25l-6.023-5.708-.955 1.007 5.999 5.686c-.054.087-.115.169-.16.262a2.91 2.91 0 0 0-.122 2.243c.259.74.79 1.333 1.497 1.673a2.917 2.917 0 0 0 2.243.123c.252-.088.48-.22.693-.367l8.633 8.183.955-1.008-8.665-8.213zM41.492 89.272a1.55 1.55 0 0 1-1.971-.947 1.549 1.549 0 0 1 .946-1.972 1.548 1.548 0 0 1 1.025 2.919m2.257-2.432a2.912 2.912 0 0 0-1.499-1.672 2.916 2.916 0 0 0-2.243-.124c-.071.025-.133.064-.201.095l-6.648-6.302-.955 1.009 6.486 6.147a2.928 2.928 0 0 0-.478 2.792 2.94 2.94 0 0 0 3.74 1.797c.365-.129.694-.325.975-.573l8.06 7.639.954-1.008-8.227-7.798a2.907 2.907 0 0 0 .036-2.002M61.134 103.378s-3.454-3.062-7.584-2.951c-4.13.11-6.88 3.01-6.88 3.01s3.458 3.28 7.266 3.288c3.807.006 7.198-3.347 7.198-3.347M62.664 98.452a170589.839 170589.839 0 0 0 3.641.248c-.485-1.113-1.186-2.267-2.194-3.223-2.998-2.842-6.995-2.736-6.995-2.736s.127 4.765 2.814 7.462c.9.903 2.034 1.507 3.144 1.91l-.217-1.94c-.059-.517-.193-1.721-.193-1.721M40.132 76.095a1.546 1.546 0 1 1-2.788-1.34 1.546 1.546 0 0 1 2.788 1.34m8.387 8.498s.404-.01 1.048.066l-8.263-7.833c.026-.045.058-.084.08-.131a2.912 2.912 0 0 0 .123-2.242 2.903 2.903 0 0 0-1.499-1.672 2.91 2.91 0 0 0-2.812.153l-2.98-2.825-.955 1.007 2.968 2.815c-.045.075-.097.144-.136.224a2.915 2.915 0 0 0-.123 2.243c.26.74.792 1.333 1.499 1.673a2.926 2.926 0 0 0 2.242.122 2.93 2.93 0 0 0 .658-.34l8.247 7.819c-.084-.656-.097-1.079-.097-1.079M76.292 104.504s-3.242-3.285-3.353-7.415c-.11-4.13 2.64-7.031 2.64-7.031s3.46 3.279 3.67 7.079c.21 3.801-2.957 7.367-2.957 7.367M71.157 106.607a168047.034 168047.034 0 0 0 3.642.248c-.486-1.111-1.186-2.266-2.195-3.222-2.998-2.842-6.995-2.736-6.995-2.736s.128 4.766 2.815 7.462c.9.904 2.034 1.507 3.144 1.91l-.218-1.939c-.057-.518-.193-1.723-.193-1.723M225.206 117.955s10.533 10.29 26.717 6.27c0 0-4.593-5.8-12.33-7.687-10.24-2.498-14.387 1.417-14.387 1.417M233.34 111.49s10.672 4.242 21.111-3.514c0 0-5.048-2.794-11.183-1.828-8.121 1.279-9.929 5.343-9.929 5.343M73.01 262.619s-9.621 9.4-24.407 5.727c0 0 4.196-5.299 11.265-7.023 9.355-2.282 13.143 1.296 13.143 1.296M65.58 256.713s-9.749 3.874-19.286-3.211c0 0 4.61-2.553 10.217-1.67 7.418 1.168 9.07 4.88 9.07 4.88M36.281 157.806a1.552 1.552 0 0 1-1.875 1.125 1.548 1.548 0 0 1-1.125-1.875 1.55 1.55 0 0 1 1.875-1.124c.4.099.738.35.95.704.213.354.275.77.175 1.17zm5.412.218l-3.994-.751a2.898 2.898 0 0 0-.401-1.351 2.913 2.913 0 0 0-1.805-1.337 2.94 2.94 0 0 0-3.38 1.638l-3.876-.728-.256 1.365 3.883.729a2.931 2.931 0 0 0 2.205 2.69 2.944 2.944 0 0 0 3.385-1.64l3.982.749.257-1.364zM342.704 332.268a1.53 1.53 0 0 1-1.156.25 1.54 1.54 0 0 1-.995-.641 1.548 1.548 0 0 1 1.548-2.401 1.548 1.548 0 0 1 .603 2.792zm6.057-1.13l-4.037-.489a2.927 2.927 0 0 0-2.374-2.54 2.924 2.924 0 0 0-3.266 1.856l-3.916-.475-.166 1.378 3.922.475c.055.47.211.925.487 1.325a2.919 2.919 0 0 0 1.889 1.216 2.914 2.914 0 0 0 2.195-.474c.5-.345.865-.827 1.074-1.382l4.024.488.168-1.378zM244.855 31.626a1.55 1.55 0 0 1 1.503-1.91c.697 0 1.33.475 1.502 1.181a1.548 1.548 0 0 1-1.137 1.867 1.551 1.551 0 0 1-1.868-1.138m4.354-1.057a2.934 2.934 0 0 0-3.02-2.231l-1.156-3.771-1.327.407 1.158 3.778a2.932 2.932 0 0 0-1.358 3.202 2.941 2.941 0 0 0 2.853 2.242c.055 0 .111-.016.166-.02l1.192 3.888 1.327-.407-1.19-3.887a2.929 2.929 0 0 0 1.355-3.201M359.687 153.608a1.54 1.54 0 0 1-1.45-1.635c.048-.82.73-1.455 1.541-1.455l.092.003a1.544 1.544 0 0 1 1.452 1.635 1.56 1.56 0 0 1-1.635 1.452zm6.995-2.239h-4.065c-.111-.458-.321-.89-.644-1.253a2.915 2.915 0 0 0-2.02-.981c-1.434-.093-2.689.883-3.018 2.234h-3.945v1.389h3.95c.112.46.322.891.645 1.255a2.916 2.916 0 0 0 2.198.986c.718 0 1.403-.26 1.945-.74.453-.403.76-.924.898-1.501h4.056v-1.389zM314.042 103.804c-.325.256-.732.37-1.14.324a1.55 1.55 0 0 1-1.355-1.715 1.551 1.551 0 0 1 1.714-1.357c.41.048.777.254 1.034.578.256.323.37.727.322 1.137-.048.41-.251.778-.575 1.033m1.342-3.032a2.932 2.932 0 0 0-5.104.966l-4.05-.232-.079 1.387 4.06.231a2.93 2.93 0 0 0 2.877 2.403c.657 0 1.291-.22 1.815-.634.474-.375.81-.877.981-1.445l3.937.225.079-1.386-3.945-.226a2.903 2.903 0 0 0-.571-1.29M75.552 294.759c.196.011.382.056.562.115v-4.668h-1.39v4.663c.261-.085.538-.128.828-.11M75.287 299.231a2.204 2.204 0 0 1-.562-.114v6.037h1.389v-6.033a2.24 2.24 0 0 1-.827.11" fill="#FF625F"></path><path d="M75.419 295.449c-.811 0-1.494.635-1.543 1.455-.025.412.113.808.387 1.117.275.31.652.493 1.065.517.834.043 1.583-.6 1.635-1.452l.692.041-.692-.04a1.54 1.54 0 0 0-.388-1.119 1.533 1.533 0 0 0-1.156-.52m.002 4.481a2.914 2.914 0 0 1-2.195-.986 2.915 2.915 0 0 1-.736-2.122c.096-1.614 1.49-2.862 3.103-2.755.782.046 1.5.394 2.02.98s.782 1.34.735 2.122a2.938 2.938 0 0 1-2.927 2.761M200.115 84.548a1.498 1.498 0 1 0 1.07 2.545 1.5 1.5 0 0 0-.023-2.118 1.492 1.492 0 0 0-1.047-.427zm0 4.776a3.26 3.26 0 0 1-2.296-.937 3.284 3.284 0 0 1-.048-4.637 3.284 3.284 0 0 1 4.639-.048 3.283 3.283 0 0 1 .048 4.637 3.262 3.262 0 0 1-2.31.985h-.033zM188.085 76.617h-.016c-.4.005-.774.164-1.054.45a1.49 1.49 0 0 0 .022 2.117c.286.28.679.426 1.064.428a1.496 1.496 0 0 0-.017-2.994m0 4.776a3.255 3.255 0 0 1-2.294-.937 3.252 3.252 0 0 1-.985-2.308 3.258 3.258 0 0 1 .937-2.329 3.264 3.264 0 0 1 2.31-.985 3.299 3.299 0 0 1 2.328.937 3.26 3.26 0 0 1 .985 2.309 3.257 3.257 0 0 1-.937 2.328 3.261 3.261 0 0 1-2.31.985h-.034M199.256 70.715h-.016a1.498 1.498 0 1 0 1.086 2.546 1.5 1.5 0 0 0-1.07-2.546m-.001 4.775c-.827 0-1.657-.311-2.294-.935a3.284 3.284 0 0 1-.048-4.637 3.263 3.263 0 0 1 2.309-.985c.862.01 1.703.324 2.329.937a3.284 3.284 0 0 1 .049 4.637 3.275 3.275 0 0 1-2.345.983M108.593 65.082h.015c.394 0 .766.152 1.048.43.286.279.446.652.45 1.052.004.4-.148.777-.429 1.064a1.49 1.49 0 0 1-1.054.45 1.472 1.472 0 0 1-1.062-.428 1.487 1.487 0 0 1-.45-1.055c-.005-.4.147-.776.428-1.063.28-.285.654-.445 1.054-.45zm-17.128-2.82l6.297-.067-2.33-2.283.888-.908a2.095 2.095 0 0 1 2.958-.032l6.365 6.233c-.204.437-.32.913-.315 1.408a3.26 3.26 0 0 0 .985 2.31 3.262 3.262 0 0 0 2.295.936h.034a3.256 3.256 0 0 0 2.309-.984 3.257 3.257 0 0 0 .937-2.328 3.257 3.257 0 0 0-.985-2.31 3.35 3.35 0 0 0-2.329-.937 3.29 3.29 0 0 0-1.223.252l-6.41-6.276a4.473 4.473 0 0 0-6.318.065l-.89.907-2.331-2.282.063 6.297zM100.741 76.75c-.28.287-.654.446-1.054.45a1.537 1.537 0 0 1-1.063-.427 1.485 1.485 0 0 1-.45-1.054c-.004-.4.148-.778.428-1.064.28-.285.654-.445 1.054-.45h.016c.394 0 .765.152 1.047.428.287.28.446.655.45 1.055.004.4-.148.776-.428 1.063M87.717 66.089a1.483 1.483 0 0 1-.45-1.053 1.491 1.491 0 0 1 1.497-1.512c.378 0 .756.141 1.047.426a1.5 1.5 0 0 1 .023 2.119 1.498 1.498 0 0 1-2.117.02m14.25 7.272a3.207 3.207 0 0 0-2.329-.937 3.273 3.273 0 0 0-1.223.251l-6.598-6.46a3.284 3.284 0 0 0-.758-3.538 3.283 3.283 0 0 0-4.638.049 3.282 3.282 0 0 0 .048 4.637 3.272 3.272 0 0 0 2.294.935c.494 0 .982-.124 1.435-.344l6.508 6.374a3.25 3.25 0 0 0 .671 3.718c.618.604 1.43.937 2.293.937h.035a3.263 3.263 0 0 0 2.31-.985 3.26 3.26 0 0 0 .936-2.329 3.255 3.255 0 0 0-.984-2.308M129.547 95.277l-.423-20.137c-.733.503-1.242.622-1.242.622s-.326-.136-.838-.416l.372 17.686-11.408-12.023c2.61-3.561 2.316-8.586-.903-11.806l-12.873 12.874c3.39 3.389 8.782 3.539 12.36.465l20.494 21.598 1.51-1.434-7.049-7.429z" fill="#FF625F"></path><path d="M200.507 74.239a2.381 2.381 0 0 1-2.377.068l.491 7.253c-2.94-3.282-6.283-4.28-8.436-4.558.398.75.377 1.664-.083 2.39 2.042.312 5.366 1.442 8.006 5.357a2.38 2.38 0 0 1 3.053-.84l-.654-9.67zM329.989 254.703a1.5 1.5 0 0 1-2.631-.856 1.5 1.5 0 0 1 1.493-1.615 1.5 1.5 0 0 1 1.138 2.47m-9.475 11.503a1.498 1.498 0 1 1-.23-2.983 1.498 1.498 0 0 1 .23 2.983m-3.844-13.886a1.5 1.5 0 0 1-1.61-1.376 1.5 1.5 0 0 1 2.467-1.255c.304.26.489.624.52 1.022v.001c.03.398-.095.785-.355 1.089a1.49 1.49 0 0 1-1.022.52m11.925-1.86a3.282 3.282 0 0 0-3.014 3.525c.04.503.203.965.44 1.376l-3.798 4.99c-.046-3.757-1.408-6.446-2.7-8.167a3.238 3.238 0 0 0-.838-3.85 3.277 3.277 0 0 0-2.386-.777 3.285 3.285 0 0 0-3.015 3.525 3.26 3.26 0 0 0 1.138 2.237 3.257 3.257 0 0 0 2.387.778c.346-.028.672-.122.984-.248 1.107 1.577 2.21 4.113 1.988 7.659-1.615.312-2.783 1.782-2.653 3.46a3.285 3.285 0 0 0 3.525 3.014 3.284 3.284 0 0 0 3.015-3.524 3.24 3.24 0 0 0-.483-1.446l4.691-6.166c.31.097.633.163.971.163a3.255 3.255 0 0 0 2.495-1.147c.57-.667.847-1.514.777-2.387v-.001a3.286 3.286 0 0 0-3.524-3.014M47.91 344.321s-1.304-10.173-6.054-12.545c-3.491-1.743-16.931-1.344-16.931-1.344s4.287 8.85 8.953 13.597c4.665 4.747 14.031.292 14.031.292" fill="#FF625F"></path><path d="M72.35 377.513c-.803.803-2.203.804-3.008 0a2.114 2.114 0 0 1-.623-1.504c0-.569.222-1.102.623-1.504a2.111 2.111 0 0 1 1.503-.623 2.13 2.13 0 0 1 1.505 3.63m2.136-32.357a2.116 2.116 0 0 1 1.505-.623c.568 0 1.102.221 1.504.623.401.402.622.936.622 1.504 0 .567-.22 1.102-.622 1.504-.805.805-2.205.803-3.009 0a2.13 2.13 0 0 1 0-3.008m-17.091 5.841a2.117 2.117 0 0 1-.623-1.504c0-.568.222-1.102.623-1.504.402-.4.935-.622 1.504-.622.568 0 1.102.221 1.503.623.402.401.624.935.624 1.503 0 .568-.222 1.103-.624 1.504-.803.803-2.203.804-3.007 0m21.572-1.36a4.213 4.213 0 0 0 0-5.953 4.213 4.213 0 0 0-5.953 0 4.215 4.215 0 0 0 0 5.953c.272.271.578.48.897.663l-2.27 14.621c-1.205-4.185-3.788-9.03-8.9-13.723a4.19 4.19 0 0 0-.865-4.681 4.174 4.174 0 0 0-1.109-.774c1.158-2.947 2.05-7.238.285-11.756-3.203-8.207-11.042-11.374-11.042-11.374s-1.587 8.328.935 16.183c.85 2.648 3.09 5.586 4.951 7.752a4.165 4.165 0 0 0-1.178 2.648c-2.864-.255-6.643-.377-9.337.495-7.848 2.541-13.681 8.695-13.681 8.695s7.149 4.512 15.682 2.318c4.93-1.267 7.936-4.754 9.608-7.48.6.305 1.251.477 1.909.477.668 0 1.329-.177 1.935-.492 7.702 7.061 9.045 14.395 9.01 18.729a4.158 4.158 0 0 0-1.974 1.096 4.213 4.213 0 0 0 0 5.952 4.196 4.196 0 0 0 2.975 1.232 4.2 4.2 0 0 0 2.978-1.232 4.215 4.215 0 0 0 0-5.952 4.102 4.102 0 0 0-.559-.456l3.38-21.772a4.18 4.18 0 0 0 2.323-1.17M324.091 399.174c.164-.202.35-.369.547-.52-8.13-3.826-15.941-4.922-22.707-4.702 5.17-3.67 9.09-7.748 11.729-10.911a3.134 3.134 0 0 1-1.378-.632c-.37-.3-.647-.667-.842-1.068-3.238 3.858-8.476 9.145-15.516 13.15-5.66.844-10.184 2.448-12.989 3.644.012.01.026.015.038.026a3.146 3.146 0 0 1 1.16 2.478c2.716-1.154 7.162-2.716 12.73-3.484l.003.004.01-.005c7.377-1.016 16.703-.62 26.523 3.987a3.139 3.139 0 0 1 .692-1.967M339.788 392.5c-5.51.333-9.313 3.666-11.387 6.11.048.034.1.058.146.096a3.16 3.16 0 0 1 1.007 3.45c2.818.853 6.996 1.917 10.105 1.536 8.188-1.001 15.085-5.934 15.085-5.934s-6.161-5.79-14.956-5.257M332.098 413.31c-.373-3.109-2.405-6.913-3.908-9.443a3.162 3.162 0 0 1-3.632-.237c-.023-.02-.04-.045-.063-.065-1.881 2.594-4.231 7.095-3.234 12.545 1.584 8.666 8.677 13.266 8.677 13.266s3.144-7.875 2.16-16.065M373.516 286.224a1.537 1.537 0 0 1 1.173-.535 1.548 1.548 0 0 1 1.168 2.556 1.544 1.544 0 0 1-2.712-.896c-.03-.413.101-.811.371-1.125zm-14.534 4.533l12.995-2.427c.173.428.433.816.792 1.126a2.91 2.91 0 0 0 2.132.706 2.921 2.921 0 0 0 2.007-1.009 2.911 2.911 0 0 0 .698-1.874l9.737-1.819-.255-1.365-9.778 1.827a2.95 2.95 0 0 0-.706-.908 2.913 2.913 0 0 0-2.132-.706 2.916 2.916 0 0 0-2.7 2.649l-13.045 2.435.255 1.365z" fill="#FF625F"></path><g transform="translate(230.55 293.387)"><mask id="b" fill="#fff"><use xlink:href="#a"></use></mask><path d="M156.916 5.304c-.27.312-.644.5-1.057.53a1.542 1.542 0 0 1-1.654-1.429c-.031-.411.1-.81.37-1.122a1.534 1.534 0 0 1 1.174-.536c.37 0 .724.13 1.007.375.313.271.502.646.531 1.058.03.412-.101.81-.37 1.124zm11.091-1.705l-9.52-.32a2.917 2.917 0 0 0-.823-1.207 2.906 2.906 0 0 0-2.133-.706 2.918 2.918 0 0 0-2.007 1.01c-.188.219-.329.465-.444.722l-14.204-.479c-2.237-1.038-6.452-2.805-8.784-2.569-2.308.234-4.728 1.362-5.821 2.733C85.424 7.583 20.467 67.747.619 98.32l2.329 1.512c12.304-18.952 43.69-50.68 74.482-72.108 1.856 1.67 5.846 4.691 10.237 4.44 6.036-.346 10.207-2.073 10.207-2.073s-4.516-4.31-8.087-5.99c-1.592-.75-3.063-1.405-4.817-1.42a209.96 209.96 0 0 1 3.83-2.395c1.628 1.975 5.02 5.398 9.27 5.829 6.017.61 10.407-.438 10.407-.438s-3.78-4.967-7.041-7.19c-1.751-1.194-3.354-2.22-5.649-2.256 1.74-.957 3.465-1.866 5.17-2.714 1.312 2.026 4.478 6.168 8.917 7.053 5.93 1.181 10.401.555 10.401.555s-3.29-5.304-6.323-7.828c-1.846-1.535-3.518-2.84-6.357-2.836a87.243 87.243 0 0 1 6.106-2.32c.91 2.345 3.091 6.786 7.084 8.539 5.537 2.43 10.037 2.783 10.037 2.783s-2.07-5.888-4.49-9.008c-1.518-1.958-2.902-3.641-5.864-4.199a46.875 46.875 0 0 1 3.734-.659c.993 1.296 3.277 2.322 5.703 2.435 2.322.105 7.199-2.685 9.372-4.008l13.543.455v.03a2.908 2.908 0 0 0 1.008 2.006 2.918 2.918 0 0 0 2.133.706 2.912 2.912 0 0 0 2.006-1.01c.381-.44.615-.972.688-1.535l9.306.312.046-1.388z" fill="#FF625F" mask="url(#b)"></path></g><path d="M375.857 307.302a1.55 1.55 0 0 1-2.181.16 1.55 1.55 0 0 1-.16-2.18c.27-.313.646-.502 1.057-.533a1.548 1.548 0 0 1 1.284 2.552m.747-3.231a2.9 2.9 0 0 0-2.132-.705 2.917 2.917 0 0 0-2.007 1.008 2.939 2.939 0 0 0-.532.927l-12.18-1.219-.138 1.383 12.177 1.218a2.908 2.908 0 0 0 2.892 2.543c.825 0 1.644-.344 2.224-1.016.25-.29.43-.618.547-.961l9.637.965.138-1.383-9.654-.965a2.913 2.913 0 0 0-.972-1.795M373.516 286.224a1.537 1.537 0 0 1 1.173-.535 1.548 1.548 0 0 1 1.168 2.556 1.544 1.544 0 0 1-2.712-.896c-.03-.413.101-.811.371-1.125zm-14.534 4.533l12.995-2.427c.173.428.433.816.792 1.126a2.91 2.91 0 0 0 2.132.706 2.921 2.921 0 0 0 2.007-1.009 2.911 2.911 0 0 0 .698-1.874l9.737-1.819-.255-1.365-9.778 1.827a2.95 2.95 0 0 0-.706-.908 2.913 2.913 0 0 0-2.132-.706 2.916 2.916 0 0 0-2.7 2.649l-13.045 2.435.255 1.365z" fill="#FF625F"></path><g transform="translate(230.55 293.387)"><mask id="d" fill="#fff"><use xlink:href="#c"></use></mask><path d="M156.916 5.304c-.27.312-.644.5-1.057.53a1.542 1.542 0 0 1-1.654-1.429c-.031-.411.1-.81.37-1.122a1.534 1.534 0 0 1 1.174-.536c.37 0 .724.13 1.007.375.313.271.502.646.531 1.058.03.412-.101.81-.37 1.124zm11.091-1.705l-9.52-.32a2.917 2.917 0 0 0-.823-1.207 2.906 2.906 0 0 0-2.133-.706 2.918 2.918 0 0 0-2.007 1.01c-.188.219-.329.465-.444.722l-14.204-.479c-2.237-1.038-6.452-2.805-8.784-2.569-2.308.234-4.728 1.362-5.821 2.733C85.424 7.583 20.467 67.747.619 98.32l2.329 1.512c12.304-18.952 43.69-50.68 74.482-72.108 1.856 1.67 5.846 4.691 10.237 4.44 6.036-.346 10.207-2.073 10.207-2.073s-4.516-4.31-8.087-5.99c-1.592-.75-3.063-1.405-4.817-1.42a209.96 209.96 0 0 1 3.83-2.395c1.628 1.975 5.02 5.398 9.27 5.829 6.017.61 10.407-.438 10.407-.438s-3.78-4.967-7.041-7.19c-1.751-1.194-3.354-2.22-5.649-2.256 1.74-.957 3.465-1.866 5.17-2.714 1.312 2.026 4.478 6.168 8.917 7.053 5.93 1.181 10.401.555 10.401.555s-3.29-5.304-6.323-7.828c-1.846-1.535-3.518-2.84-6.357-2.836a87.243 87.243 0 0 1 6.106-2.32c.91 2.345 3.091 6.786 7.084 8.539 5.537 2.43 10.037 2.783 10.037 2.783s-2.07-5.888-4.49-9.008c-1.518-1.958-2.902-3.641-5.864-4.199a46.875 46.875 0 0 1 3.734-.659c.993 1.296 3.277 2.322 5.703 2.435 2.322.105 7.199-2.685 9.372-4.008l13.543.455v.03a2.908 2.908 0 0 0 1.008 2.006 2.918 2.918 0 0 0 2.133.706 2.912 2.912 0 0 0 2.006-1.01c.381-.44.615-.972.688-1.535l9.306.312.046-1.388z" fill="#FF625F" mask="url(#d)"></path></g><path d="M375.857 307.302a1.55 1.55 0 0 1-2.181.16 1.55 1.55 0 0 1-.16-2.18c.27-.313.646-.502 1.057-.533a1.548 1.548 0 0 1 1.284 2.552m.747-3.231a2.9 2.9 0 0 0-2.132-.705 2.917 2.917 0 0 0-2.007 1.008 2.939 2.939 0 0 0-.532.927l-12.18-1.219-.138 1.383 12.177 1.218a2.908 2.908 0 0 0 2.892 2.543c.825 0 1.644-.344 2.224-1.016.25-.29.43-.618.547-.961l9.637.965.138-1.383-9.654-.965a2.913 2.913 0 0 0-.972-1.795M52.806 285.965a1.497 1.497 0 1 1 2.137 2.097 1.497 1.497 0 0 1-2.137-2.097zm-9.777-3.337l-2.33-2.284.888-.907a2.095 2.095 0 0 1 2.959-.031l6.366 6.234a3.276 3.276 0 0 0 .668 3.716 3.266 3.266 0 0 0 2.295.935c.851 0 1.702-.329 2.344-.983a3.284 3.284 0 0 0-.048-4.638 3.286 3.286 0 0 0-3.553-.684l-6.41-6.278a4.538 4.538 0 0 0-3.173-1.276 4.446 4.446 0 0 0-3.145 1.342l-.89.908-2.331-2.283.063 6.297 6.297-.068zM46.009 297.184a1.498 1.498 0 0 1-2.14-2.095 1.49 1.49 0 0 1 1.07-.449 1.5 1.5 0 0 1 1.07 2.544M35.1 286.501a1.493 1.493 0 0 1-2.118.022 1.498 1.498 0 0 1-.021-2.117 1.49 1.49 0 0 1 1.07-.448 1.498 1.498 0 0 1 1.07 2.543m12.132 7.292a3.288 3.288 0 0 0-3.553-.684l-6.597-6.461a3.284 3.284 0 0 0-.758-3.537 3.284 3.284 0 0 0-4.638.048 3.283 3.283 0 0 0 .048 4.637 3.26 3.26 0 0 0 2.294.937h.035c.496-.005.97-.131 1.403-.343l6.508 6.374a3.271 3.271 0 0 0 .668 3.714 3.267 3.267 0 0 0 2.294.936c.852 0 1.703-.329 2.344-.983a3.284 3.284 0 0 0-.048-4.638M88.335 329.61L61.29 301.42c2.594-3.56 2.296-8.572-.917-11.784L47.5 302.509c3.395 3.396 8.802 3.54 12.379.448l12.787 13.329-12.867-2.17c.145.406.16.651.16.651s-.173.279-.507.698l14.825 2.5 12.555 13.087 1.503-1.442zM305.95 11.99c-.585.583-1.603.584-2.187 0a1.53 1.53 0 0 1-.452-1.093c0-.414.16-.801.452-1.093.292-.293.68-.453 1.093-.453.414 0 .801.16 1.094.453a1.549 1.549 0 0 1 0 2.186zm4.953-6.163l-.959-1.003-3.693 3.517c-1.108-.578-2.562-.427-3.47.48a2.91 2.91 0 0 0-.859 2.076c0 .452.112.882.304 1.277l-10.303 9.813c.64-.078 1.041-.07 1.041-.07s-.01.424-.093 1.083l10.243-9.755a2.9 2.9 0 0 0 1.742.586c.785 0 1.52-.305 2.075-.859a2.94 2.94 0 0 0 .362-3.707l3.61-3.438zM319.045 83.629c-.578.59-1.528.6-2.117.023a1.498 1.498 0 0 1 1.047-2.567 1.497 1.497 0 0 1 1.07 2.544zm7.262-15.921l2.284-2.33-6.298.061.068 6.298 2.284-2.331.907.889c.824.807.838 2.135.03 2.958l-6.233 6.365c-1.225-.564-2.721-.347-3.717.67a3.284 3.284 0 0 0 .048 4.637 3.268 3.268 0 0 0 2.295.934c.85 0 1.702-.327 2.343-.982a3.284 3.284 0 0 0 .685-3.552l6.278-6.41a4.473 4.473 0 0 0-.066-6.317l-.908-.89zM307.782 72.598a1.49 1.49 0 0 1 1.055-.45h.016c.393 0 .765.153 1.046.428.287.28.446.655.45 1.055.004.4-.147.777-.429 1.063-.279.287-.654.445-1.053.45a1.525 1.525 0 0 1-1.063-.428 1.48 1.48 0 0 1-.448-1.054c-.005-.4.146-.778.426-1.064m10.684-10.907a1.494 1.494 0 0 1 1.07-.448c.378 0 .756.142 1.047.427.286.28.446.653.45 1.053a1.5 1.5 0 0 1-2.544 1.086 1.498 1.498 0 0 1-.023-2.118m-9.614 15.235h.034a3.258 3.258 0 0 0 2.308-.985 3.26 3.26 0 0 0 .937-2.329 3.242 3.242 0 0 0-.252-1.223l6.464-6.599a3.28 3.28 0 0 0 3.536-.757 3.255 3.255 0 0 0 .936-2.329 3.257 3.257 0 0 0-.985-2.308 3.284 3.284 0 0 0-4.638.048 3.274 3.274 0 0 0-.59 3.73l-6.365 6.498a3.136 3.136 0 0 0-1.42-.305 3.26 3.26 0 0 0-2.309.985 3.256 3.256 0 0 0-.935 2.328c.009.876.358 1.696.984 2.31a3.26 3.26 0 0 0 2.295.936M301.994 88.544l-12.05 11.303-.375-17.836c-.732.502-1.24.622-1.24.622s-.326-.137-.838-.417l.41 19.548-3.124 2.93 1.426 1.519 17.32-16.249c3.564 2.629 8.603 2.34 11.829-.885l-12.874-12.873c-3.383 3.382-3.54 8.762-.484 12.338M160.66 341.217l25.004-25.002-14.25-14.248-10.754 10.753 10.666 10.664-10.666 10.665zM146.322 373.654l14.338 14.336 7.17-7.168 3.584-3.585 17.002-17-3.584-3.585-17.002 17.002-7.17-7.169zM337.862 197.137a1.5 1.5 0 0 1-2.087-.356 1.499 1.499 0 0 1 1.474-2.342c.395.067.739.284.97.611.232.326.322.723.253 1.117a1.49 1.49 0 0 1-.61.97zm9.989-14.37l2.663-1.884-6.206-1.064-1.059 6.208 2.664-1.886.734 1.037c.667.942.442 2.25-.498 2.917l-7.27 5.147a3.256 3.256 0 0 0-1.33-.56 3.254 3.254 0 0 0-2.448.557 3.283 3.283 0 0 0-.78 4.571 3.28 3.28 0 0 0 4.571.781 3.277 3.277 0 0 0 1.308-3.372l7.322-5.185a4.474 4.474 0 0 0 1.064-6.229l-.735-1.037zM328.75 184.271a1.498 1.498 0 1 1 0 0m12.462-8.824a1.485 1.485 0 0 1 1.116-.253c.395.067.74.284.97.61a1.5 1.5 0 0 1-.356 2.088c-.326.23-.725.322-1.118.253a1.49 1.49 0 0 1-.97-.61 1.488 1.488 0 0 1-.253-1.118c.066-.394.285-.738.611-.97m-12.148 13.279a3.278 3.278 0 0 0 2.448-.557 3.283 3.283 0 0 0 1.308-3.372l7.536-5.337a3.268 3.268 0 0 0 3.617-.115 3.283 3.283 0 0 0 .78-4.571 3.264 3.264 0 0 0-2.124-1.338 3.267 3.267 0 0 0-2.448.557 3.257 3.257 0 0 0-1.336 2.124 3.26 3.26 0 0 0 .085 1.442l-7.433 5.263a3.278 3.278 0 0 0-3.776-.006 3.284 3.284 0 0 0-.781 4.573 3.263 3.263 0 0 0 2.124 1.337M336.588 209.168c-13.903-1.033-24.288-.022-30.18.894l15.018-9.5c3.032 3.254 8.065 3.884 11.83 1.277l-10.368-14.966c-3.92 2.716-5.041 7.953-2.706 12.012l-19.577 12.385.557.88.27 1.005c.133-.037 13.546-3.55 35.313-1.89-.369-.464-.562-.767-.562-.767s.033-.523.405-1.33" fill="#FF625F"></path></g></svg>
